#!OML:ASF E:\Mandelcareful walks\Project 1\Capture day 1\Session 1\Subject1.ASF
:FULLY-SPECIFIED
:DEGREES
259
root -4.08113 16.06 1.01865 92.4512 84.3993 78.9552
lowerback 17.9866 -2.86354 -0.898057
upperback 6.38471 -3.48089 0.490209
thorax -3.12799 -1.56695 1.71661
lowerneck -28.1595 8.06185 1.64051
upperneck 24.6914 15.5424 -13.3185
head 14.6082 5.08406 -2.33118
rclavicle -2.18663e-015 2.06736e-014
rhumerus -48.1556 4.29649 -74.2616
rradius 73.404
rwrist -24.4824
rhand -11.732 -17.1968
rfingers 7.12502
rthumb 14.3152 -46.6833
lclavicle -2.18663e-015 2.06736e-014
lhumerus -26.4431 -28.3337 81.9647
lradius 78.7888
lwrist 24.1294
lhand -28.7482 -25.4363
lfingers 7.12502
lthumb -2.10852 4.53301
rfemur -41.8379 -17.837 13.4229
rtibia 55.2523
rfoot -18.3686 -5.36624
rtoes -9.10954
lfemur -2.57735 2.88156 -17.4973
ltibia 61.4967
lfoot 0.653282 8.99079
ltoes -14.3036
260
root -3.57387 15.9368 1.09074 78.4144 85.6725 66.3523
lowerback 19.6507 -2.55692 1.52005
upperback 6.65497 -2.58492 0.56159
thorax -3.84181 -1.08567 0.30256
lowerneck -26.8838 8.80934 1.8873
upperneck 23.7679 16.4772 -13.7745
head 14.1202 5.5805 -2.3525
rclavicle 3.02153e-014 7.95139e-015
rhumerus -45.4748 4.55173 -74.2069
rradius 73.6642
rwrist -24.4123
rhand -13.4374 -16.9891
rfingers 7.12502
rthumb 12.6715 -46.5847
lclavicle 3.02153e-014 7.95139e-015
lhumerus -29.1833 -27.5659 83.9176
lradius 74.3411
lwrist 23.3195
lhand -27.8264 -23.8545
lfingers 7.12502
lthumb -1.21825 6.12178
rfemur -38.2807 -16.7335 14.4002
rtibia 55.5749
rfoot -20.5168 -6.20498
rtoes -10.4564
lfemur -5.23069 4.91901 -15.4761
ltibia 68.8804
lfoot -0.398548 6.84006
ltoes -15.1864
261
root -3.07351 15.8287 1.15269 52.9393 86.8695 41.8632
lowerback 21.1058 -2.35142 4.42078
upperback 6.78249 -1.65558 0.643793
thorax -4.51787 -0.607344 -1.43428
lowerneck -25.4384 9.84008 3.11369
upperneck 22.8574 17.7539 -15.1013
head 13.8755 6.21801 -2.79706
rclavicle 3.57812e-015 7.55382e-015
rhumerus -42.7966 5.10863 -74.1067
rradius 74.919
rwrist -24.369
rhand -14.6067 -18.2181
rfingers 7.12502
rthumb 11.5441 -47.8802
lclavicle 3.57812e-015 7.55382e-015
lhumerus -31.9266 -26.3152 85.5538
lradius 69.9156
lwrist 22.9414
lhand -28.196 -20.2777
lfingers 7.12502
lthumb -1.57518 9.69619
rfemur -35.1805 -15.8784 15.9366
rtibia 55.7192
rfoot -22.3037 -6.48261
rtoes -11.3475
lfemur -8.69933 7.08029 -13.0515
ltibia 75.5976
lfoot -1.42354 4.83553
ltoes -15.3624
262
root -2.57714 15.7473 1.20868 22.2184 87.2017 11.243
lowerback 21.793 -2.26512 6.84952
upperback 6.72496 -0.97064 0.766471
thorax -4.91346 -0.274859 -2.84318
lowerneck -23.8543 11.1709 4.28065
upperneck 21.6933 19.4658 -16.4502
head 13.5946 7.07366 -3.13486
rclavicle 1.19271e-015 3.73715e-014
rhumerus -39.6203 6.02145 -73.7736
rradius 75.5486
rwrist -23.4272
rhand -15.1627 -17.3911
rfingers 7.12502
rthumb 11.0078 -47.0825
lclavicle 1.19271e-015 3.73715e-014
lhumerus -34.1795 -24.1883 86.7003
lradius 64.7113
lwrist 22.76
lhand -27.8925 -17.5389
lfingers 7.12502
lthumb -1.28205 12.437
rfemur -32.9569 -15.4034 17.3674
rtibia 55.6378
rfoot -23.8414 -6.8305
rtoes -12.8432
lfemur -13.7298 9.192 -11.2528
ltibia 81.5977
lfoot -2.48086 3.25893
ltoes -16.4664
263
root -2.02853 15.6795 1.26723 21.1641 85.5632 10.4037
lowerback 22.1218 -1.41276 6.88719
upperback 6.86325 0.127632 0.298471
thorax -4.81698 0.267679 -3.65486
lowerneck -23.0959 12.3094 6.03355
upperneck 21.903 21.1257 -17.8968
head 14.1975 7.80304 -3.59398
rclavicle -7.95139e-016 2.70347e-014
rhumerus -36.4118 6.36853 -73.3783
rradius 76.8547
rwrist -22.2573
rhand -14.7782 -18.0133
rfingers 7.12502
rthumb 11.3787 -47.6846
lclavicle -7.95139e-016 2.70347e-014
lhumerus -36.1106 -22.534 87.469
lradius 59.1923
lwrist 22.8098
lhand -29.2584 -12.4603
lfingers 7.12502
lthumb -2.60125 17.5036
rfemur -30.3919 -14.2201 16.4266
rtibia 55.2025
rfoot -25.2538 -6.72418
rtoes -13.3208
lfemur -18.3355 11.7848 -12.1129
ltibia 85.9771
lfoot -4.54264 2.9906
ltoes -16.5136
264
root -1.56054 15.6279 1.35305 5.78711 85.7904 -5.66693
lowerback 22.202 -1.13215 7.86792
upperback 6.54861 0.734244 0.710247
thorax -5.11913 0.533761 -3.92479
lowerneck -21.3631 13.4031 7.42279
upperneck 21.1096 22.6606 -19.3431
head 14.1803 8.59651 -4.03508
rclavicle -7.95139e-015 -2.38542e-014
rhumerus -32.4219 7.22201 -72.6536
rradius 77.4439
rwrist -21.2346
rhand -15.1059 -17.4989
rfingers 7.12502
rthumb 11.0626 -47.1874
lclavicle -7.95139e-015 -2.38542e-014
lhumerus -38.0389 -19.9542 88.0622
lradius 54.65
lwrist 21.1047
lhand -30.9959 -5.5818
lfingers 7.12502
lthumb -4.27918 24.355
rfemur -28.4541 -13.2296 17.813
rtibia 54.1721
rfoot -26.2954 -7.63255
rtoes -13.0215
lfemur -25.3918 13.2183 -11.234
ltibia 89.5349
lfoot -5.67858 2.06518
ltoes -13.972
265
root -0.986166 15.6292 1.41161 14.9684 85.4012 4.38059
lowerback 22.2354 -0.589689 6.83928
upperback 7.00422 1.21285 0.561883
thorax -4.60735 0.809264 -3.61775
lowerneck -20.1367 14.2427 8.20332
upperneck 20.6567 23.8391 -20.0077
head 14.1664 9.21935 -4.15247
rclavicle -3.97569e-016 4.77083e-015
rhumerus -28.4553 7.84286 -72.0307
rradius 78.0997
rwrist -20.5699
rhand -16.1348 -16.6966
rfingers 7.12502
rthumb 10.0701 -46.4357
lclavicle -3.97569e-016 4.77083e-015
lhumerus -41.0876 -18.1201 88.6103
lradius 52.6615
lwrist 20.1408
lhand -34.7609 -11.4355
lfingers 7.12502
lthumb -7.91403 18.3964
rfemur -23.9982 -12.8073 16.1764
rtibia 52.5268
rfoot -27.1384 -7.76089
rtoes -14.7837
lfemur -29.4713 13.6671 -13.2493
ltibia 90.4158
lfoot -7.90114 2.57033
ltoes -14.6013
266
root -0.423171 15.6713 1.45113 8.03037 85.0586 -2.54197
lowerback 21.8563 0.0301795 7.37454
upperback 7.16102 2.08398 0.468311
thorax -4.11849 1.2611 -4.22234
lowerneck -18.9176 14.8193 9.31503
upperneck 20.085 24.4766 -20.6144
head 14.0608 9.64683 -4.43101
rclavicle 6.55989e-014 3.02153e-014
rhumerus -24.976 7.14024 -72.1978
rradius 78.9722
rwrist -19.9916
rhand -16.0433 -16.0253
rfingers 7.12502
rthumb 10.1584 -45.7601
lclavicle 6.55989e-014 3.02153e-014
lhumerus -43.9322 -17.3433 88.7843
lradius 51.9399
lwrist 21.1647
lhand -30.1599 -0.303
lfingers 7.12502
lthumb -3.47192 29.6485
rfemur -20.2841 -11.6956 16.2795
rtibia 50.0669
rfoot -27.0046 -8.35432
rtoes -16.8781
lfemur -34.5388 14.0572 -14.1306
ltibia 89.8763
lfoot -10.0136 3.31558
ltoes -14.4258
267
root 0.156014 15.7393 1.49543 7.27077 83.8856 -3.56716
lowerback 21.2647 0.973766 6.91847
upperback 7.25251 3.12829 0.226751
thorax -3.6006 1.78874 -4.4373
lowerneck -18.0832 15.3598 9.96313
upperneck 19.7044 25.1414 -20.9074
head 14.0033 10.0398 -4.49734
rclavicle -5.80451e-014 3.18055e-015
rhumerus -21.8492 6.90476 -72.4146
rradius 80.1359
rwrist -20.1123
rhand -16.4592 -15.7719
rfingers 7.12502
rthumb 9.7571 -45.5259
lclavicle -5.80451e-014 3.18055e-015
lhumerus -46.9156 -16.8467 89.0727
lradius 51.6545
lwrist 21.9848
lhand -29.9514 -1.07661
lfingers 7.12502
lthumb -3.27049 28.8781
rfemur -16.8907 -9.51415 15.937
rtibia 47.1828
rfoot -26.0761 -8.68039
rtoes -17.9477
lfemur -39.1555 14.567 -15.5538
ltibia 87.5844
lfoot -11.3976 4.28036
ltoes -12.3447
268
root 0.785422 15.8615 1.54204 5.92112 84.5738 -4.58052
lowerback 20.922 1.14174 6.79389
upperback 7.51513 3.30786 0.298643
thorax -3.13251 1.90908 -4.30191
lowerneck -18.3691 15.9771 9.73607
upperneck 20.3609 26.169 -20.449
head 14.4014 10.4398 -4.01191
rclavicle 5.96354e-015 -5.56597e-014
rhumerus -19.0899 7.05811 -72.6556
rradius 81.4587
rwrist -20.7364
rhand -17.5374 -16.4757
rfingers 7.12502
rthumb 8.71675 -46.2757
lclavicle 5.96354e-015 -5.56597e-014
lhumerus -49.8769 -16.259 89.6951
lradius 51.6233
lwrist 21.8223
lhand -29.9204 -5.40676
lfingers 7.12502
lthumb -3.24057 24.5484
rfemur -11.8315 -8.50386 15.8046
rtibia 43.5096
rfoot -24.6597 -9.24989
rtoes -18.0619
lfemur -42.1582 12.8651 -16.3703
ltibia 83.5663
lfoot -12.7971 5.22472
ltoes -10.9216
269
root 1.41616 15.9827 1.56155 5.17393 83.5002 -5.80586
lowerback 19.9782 2.28247 6.53778
upperback 7.54606 4.63001 0.00207833
thorax -2.45039 2.58054 -4.6854
lowerneck -16.9265 16.1795 11.0132
upperneck 19.1451 26.2934 -21.6456
head 14.0654 10.673 -4.66627
rclavicle 2.38542e-014 -1.43125e-014
rhumerus -17.7477 6.45477 -73.1736
rradius 82.9595
rwrist -22.3801
rhand -18.7044 -15.6427
rfingers 7.12502
rthumb 7.59047 -45.4865
lclavicle 2.38542e-014 -1.43125e-014
lhumerus -52.6926 -16.9833 90.2831
lradius 51.9969
lwrist 21.3956
lhand -28.2881 -5.36077
lfingers 7.12502
lthumb -1.66417 24.6125
rfemur -8.25318 -6.53303 15.5302
rtibia 39.6374
rfoot -21.4823 -9.39538
rtoes -18.4756
lfemur -45.2269 12.6287 -17.3954
ltibia 78.483
lfoot -14.4605 6.60102
ltoes -11.6582
270
root 2.09248 16.1699 1.57644 5.67496 82.7286 -5.72413
lowerback 18.7897 3.35586 5.98331
upperback 7.68286 5.82414 -0.141986
thorax -1.58579 3.19642 -4.6434
lowerneck -16.541 16.4085 11.6658
upperneck 19.0894 26.6663 -22.0785
head 14.2357 10.8777 -4.83882
rclavicle 3.49861e-014 2.22639e-014
rhumerus -16.9996 5.9296 -73.4682
rradius 84.8105
rwrist -24.0219
rhand -18.9907 -14.5786
rfingers 7.12502
rthumb 7.31411 -44.4321
lclavicle 3.49861e-014 2.22639e-014
lhumerus -55.2929 -17.3638 90.9567
lradius 52.7008
lwrist 20.9473
lhand -26.9409 -9.04616
lfingers 7.12502
lthumb -0.363049 20.9333
rfemur -4.29168 -5.14496 15.0213
rtibia 35.1848
rfoot -17.3263 -9.27558
rtoes -18.9071
lfemur -47.0041 12.1989 -18.2926
ltibia 71.9913
lfoot -15.5721 8.04436
ltoes -12.2145
271
root 2.78313 16.3461 1.59203 5.35231 82.0131 -6.61725
lowerback 17.3956 4.41865 5.35608
upperback 7.77038 7.00635 -0.200065
thorax -0.700287 3.7977 -4.40536
lowerneck -16.5811 16.6697 11.9835
upperneck 19.4613 27.1012 -22.0284
head 14.533 11.0631 -4.74686
rclavicle -3.18055e-015 1.27222e-014
rhumerus -16.7232 5.46961 -73.7643
rradius 86.5984
rwrist -25.6745
rhand -18.7169 -13.8426
rfingers 7.12502
rthumb 7.57842 -43.6868
lclavicle -3.18055e-015 1.27222e-014
lhumerus -57.7119 -17.4538 91.5566
lradius 53.4959
lwrist 21.0774
lhand -25.169 -9.40275
lfingers 7.12502
lthumb 1.34832 20.5727
rfemur -0.564091 -3.93977 14.6577
rtibia 30.6032
rfoot -12.3149 -9.31829
rtoes -18.3014
lfemur -48.3164 11.7414 -18.7873
ltibia 64.901
lfoot -15.8999 9.49294
ltoes -12.224
272
root 3.49325 16.5099 1.60992 4.12597 81.3022 -8.53596
lowerback 15.8385 5.37066 4.89328
upperback 7.82684 8.08527 -0.346316
thorax 0.248667 4.35025 -4.27077
lowerneck -16.4723 16.9249 12.3958
upperneck 19.3928 27.361 -22.0146
head 14.5972 11.2117 -4.7265
rclavicle -8.74653e-014 -5.1684e-014
rhumerus -16.413 5.14442 -74.3291
rradius 87.8589
rwrist -27.2642
rhand -18.0391 -13.8328
rfingers 7.12502
rthumb 8.23262 -43.6524
lclavicle -8.74653e-014 -5.1684e-014
lhumerus -59.7328 -17.5805 91.8673
lradius 54.2688
lwrist 22.3722
lhand -24.2589 -11.8084
lfingers 7.12502
lthumb 2.22732 18.1597
rfemur 3.14251 -2.67429 14.5422
rtibia 25.6014
rfoot -6.70616 -9.99367
rtoes -16.7254
lfemur -49.1864 11.4187 -18.9514
ltibia 57.4425
lfoot -14.3612 10.7449
ltoes -10.9865
273
root 4.22021 16.677 1.628 2.34647 80.9229 -10.9935
lowerback 14.195 6.0924 4.66491
upperback 7.92354 8.91836 -0.543369
thorax 1.30336 4.7913 -4.22549
lowerneck -16.5244 17.0423 12.7388
upperneck 19.0069 27.2857 -21.9897
head 14.4727 11.2166 -4.76809
rclavicle -5.00937e-014 0
rhumerus -16.0678 4.98005 -75.1615
rradius 88.4276
rwrist -28.1222
rhand -17.5346 -13.1638
rfingers 7.12502
rthumb 8.71946 -42.9637
lclavicle -5.00937e-014 0
lhumerus -61.1744 -17.7322 91.7955
lradius 54.9075
lwrist 23.7279
lhand -23.3352 -13.1477
lfingers 7.12502
lthumb 3.11937 16.8093
rfemur 6.78589 -1.64725 14.651
rtibia 20.7736
rfoot -1.32029 -11.157
rtoes -15.6857
lfemur -49.8664 10.8949 -18.7719
ltibia 50.3846
lfoot -11.0818 11.449
ltoes -6.79494
